<svg xmlns="http://www.w3.org/2000/svg" viewBox="0 0 64 64" fill="none" role="img" aria-labelledby="tl">
  <title id="tl">AI Complaint Doctor</title>
  <defs>
    <linearGradient id="acd-bg" x1="8" y1="4" x2="56" y2="62" gradientUnits="userSpaceOnUse">
      <stop stop-color="#0f172a"/>
      <stop offset="0.35" stop-color="#5b21b6"/>
      <stop offset="0.68" stop-color="#7e22ce"/>
      <stop offset="1" stop-color="#0e7490"/>
    </linearGradient>
    <linearGradient id="acd-shine" x1="32" y1="10" x2="32" y2="36" gradientUnits="userSpaceOnUse">
      <stop stop-color="#ffffff" stop-opacity="0.38"/>
      <stop offset="1" stop-color="#ffffff" stop-opacity="0.02"/>
    </linearGradient>
    <radialGradient id="acd-r" cx="32" cy="22" r="18" gradientUnits="userSpaceOnUse">
      <stop stop-color="#ffffff" stop-opacity="0.14"/>
      <stop offset="1" stop-color="#ffffff" stop-opacity="0"/>
    </radialGradient>
  </defs>
  <rect width="64" height="64" rx="18" fill="url(#acd-bg)"/>
  <rect x="0.5" y="0.5" width="63" height="63" rx="17.5" stroke="#ffffff" stroke-opacity="0.14"/>
  <path fill="#f8fafc" fill-opacity="0.96" d="M32 13.5 46 20v13.5c0 8.8-5.8 17.2-14 21.5-8.2-4.3-14-12.7-14-21.5V20l14-6.5Z"/>
  <path fill="url(#acd-shine)" d="M32 13.5 46 20v13.5c0 8.8-5.8 17.2-14 21.5-8.2-4.3-14-12.7-14-21.5V20l14-6.5Z"/>
  <ellipse cx="32" cy="23" rx="14" ry="10" fill="url(#acd-r)"/>
  <path stroke="#3730a3" stroke-width="2.2" stroke-linecap="round" stroke-linejoin="round" fill="none" d="M21.5 36.5 25 31.5 28.8 37.2 32.4 29.5 36.2 35.8 40 33 43.5 36"/>
  <circle cx="32" cy="26.5" r="2.35" fill="#06b6d4"/>
  <circle cx="32" cy="26.5" r="3.6" stroke="#67e8f9" stroke-opacity="0.55" stroke-width="1" fill="none"/>
  <circle cx="40.5" cy="22" r="1.05" fill="#c4b5fd"/>
  <circle cx="23.5" cy="24" r="0.85" fill="#a5f3fc"/>
</svg>
